<svg xmlns="http://www.w3.org/2000/svg" viewBox="0 0 600 600" width="600" height="600" font-family="Ubuntu, 'Helvetica Neue', Arial, sans-serif" xmlns:c2pa="http://c2pa.org/manifest"><metadata><c2pa:manifest>AAAWgmp1bWIAAAAeanVtZGMycGEAEQAQgAAAqgA4m3EDYzJwYQAAABZcanVtYgAAAEdqdW1kYzJtYQARABCAAACqADibcQN1cm46YzJwYTo0YTcyYWNkMi01NTRiLTQ1M2YtOTllMC01MjE4NTk3YWIzYmQAAAADl2p1bWIAAAApanVtZGMyYXMAEQAQgAAAqgA4m3EDYzJwYS5hc3NlcnRpb25zAAAAALxqdW1iAAAARGp1bWRjYm9yABEAEIAAAKoAOJtxE2MycGEuaW5ncmVkaWVudC52MwAAAAAYYzJzaI7nyws0hYxjOdJbY3jfFk8AAABwY2JvcqNpZGM6Zm9ybWF0bWltYWdlL3N2Zyt4bWxqaW5zdGFuY2VJRHgseG1wOmlpZDo1MDdjOTJiNC0xMGI1LTQ1M2QtYTA1OC02MjA5YmE0YzQ4ZWVscmVsYXRpb25zaGlwaHBhcmVudE9mAAAB4mp1bWIAAABBanVtZGNib3IAEQAQgAAAqgA4m3ETYzJwYS5hY3Rpb25zLnYyAAAAABhjMnNoeXSOiwZ/hl84Amb5T7Zl4QAAAZljYm9yomdhY3Rpb25zgqJmYWN0aW9ua2MycGEub3BlbmVkanBhcmFtZXRlcnOha2luZ3JlZGllbnRzgaJjdXJseC1zZWxmI2p1bWJmPWMycGEuYXNzZXJ0aW9ucy9jMnBhLmluZ3JlZGllbnQudjNkaGFzaFgg9AH/prXZ9yv5MjNQolvlInNETtF7Z77XSBI3/l4X+xekZmFjdGlvbngdY29tLmFudGhyb3BpYy5jbGF1ZGUucHJvdmlkZWRqcGFyYW1ldGVyc6F4H2NvbS5hbnRocm9waWMub3JpZ2luLWNvbmZpZGVuY2VndW5rbm93bmtkZXNjcmlwdGlvbnhmQ2xhdWRlIHByb3ZpZGVkIHRoaXMgZmlsZSBhdCB0aGUgcmVxdWVzdCBvZiBhIHVzZXIgYW5kIG1heSBoYXZlIGNyZWF0ZWQgb3IgbW9kaWZpZWQgdGhlIGZpbGUgY29udGVudHMubXNvZnR3YXJlQWdlbnShZG5hbWVmQ2xhdWRlcmFsbEFjdGlvbnNJbmNsdWRlZPUAAADIanVtYgAAAEBqdW1kY2JvcgARABCAAACqADibcRNjMnBhLmhhc2guZGF0YQAAAAAYYzJzaBhKVVJ3dQBseerS69SxaSEAAACAY2JvcqVjYWxnZnNoYTI1NmNwYWRNAAAAAAAAAAAAAAAAAGRoYXNoWCDmDn7ACHRRIa5is6rfYMPETzF/u+N6WJQxC6YNzFSEPWRuYW1lbmp1bWJmIG1hbmlmZXN0amV4Y2x1c2lvbnOBomVzdGFydBjQZmxlbmd0aBkeBAAAAj5qdW1iAAAAJ2p1bWRjMmNsABEAEIAAAKoAOJtxA2MycGEuY2xhaW0udjIAAAACD2Nib3KlY2FsZ2ZzaGEyNTZpc2lnbmF0dXJleE1zZWxmI2p1bWJmPS9jMnBhL3VybjpjMnBhOjRhNzJhY2QyLTU1NGItNDUzZi05OWUwLTUyMTg1OTdhYjNiZC9jMnBhLnNpZ25hdHVyZWppbnN0YW5jZUlEeCx4bXA6aWlkOjk2NmZjZWI2LWJiYzItNDczZi1hOGYzLWI0M2YzMThjZThkZHJjcmVhdGVkX2Fzc2VydGlvbnODomN1cmx4LXNlbGYjanVtYmY9YzJwYS5hc3NlcnRpb25zL2MycGEuaW5ncmVkaWVudC52M2RoYXNoWCD0Af+mtdn3K/kyM1CiW+Uic0RO0XtnvtdIEjf+Xhf7F6JjdXJseCpzZWxmI2p1bWJmPWMycGEuYXNzZXJ0aW9ucy9jMnBhLmFjdGlvbnMudjJkaGFzaFgguMKW4IsKs8pxEdjpuaYTVpEWOGgjt3EChlywEJsmBiWiY3VybHgpc2VsZiNqdW1iZj1jMnBhLmFzc2VydGlvbnMvYzJwYS5oYXNoLmRhdGFkaGFzaFggiCUP0f0Or04Rtutk7q6AOkw1ZoKXIHy80f73FH+hb6l0Y2xhaW1fZ2VuZXJhdG9yX2luZm+jZG5hbWVvQW50aHJvcGljIEZpbGVzZ3ZlcnNpb25lMS4wLjBrc3BlY1ZlcnNpb25lMi40LjAAABA4anVtYgAAAChqdW1kYzJjcwARABCAAACqADibcQNjMnBhLnNpZ25hdHVyZQAAABAIY2JvctKEWQISogEmGCFZAgowggIGMIIBjaADAgECAhRA5aAK7sI50L64g/oGQgU9Z1UTADAKBggqhkjOPQQDAzBJMRcwFQYDVQQKEw5BbnRocm9waWMsIFBCQzEuMCwGA1UEAxMlQW50aHJvcGljIENvbnRlbnQgQ3JlZGVudGlhbHMgUm9vdCBDQTAeFw0yNjA4MDcxODQzNTZaFw0yODA4MDYxOTQzNTZaMEQxFzAVBgNVBAoTDkFudGhyb3BpYywgUEJDMSkwJwYDVQQDEyBBbnRocm9waWMgQ2xhdWRlIENvbnRlbnQgU2lnbmluZzBZMBMGByqGSM49AgEGCCqGSM49AwEHA0IABJh6CmvLUBgFFNU0vUKlOVtE6djd17L5SuwX0LemFisBM3dkd/3cyjxFA3Qo5S46fX0/ihY0VZ7mfb9KF703t5OjWDBWMA4GA1UdDwEB/wQEAwIHgDAVBgNVHSUEDjAMBgorBgEEAYPoXgIBMAwGA1UdEwEB/wQCMAAwHwYDVR0jBBgwFoAUzlHiBIFOZFsj+OPEz5o+nMHXXMIwCgYIKoZIzj0EAwMDZwAwZAIwMXMdFJ4BetLLVY7ORuE9noqbbAZOZn/aArXyTwFAZfKrPzxF2vPoJNf1+UCdg1XGAjBwX1zd9WGqYkqmL5SFqw1QySjr1zJfpJM9+1rdDwSPLMOPOjKuiXjoU/pUUeG9RwmhY3BhZFkNngAAAAAAAAAAAAAAAAAAAAAAAAAAAAAAAAAAAAAAAAAAAAAAAAAAAAAAAAAAAAAAAAAAAAAAAAAAAAAAAAAAAAAAAAAAAAAAAAAAAAAAAAAAAAAAAAAAAAAAAAAAAAAAAAAAAAAAAAAAAAAAAAAAAAAAAAAAAAAAAAAAAAAAAAAAAAAAAAAAAAAAAAAAAAAAAAAAAAAAAAAAAAAAAAAAAAAAAAAAAAAAAAAAAAAAAAAAAAAAAAAAAAAAAAAAAAAAAAAAAAAAAAAAAAAAAAAAAAAAAAAAAAAAAAAAAAAAAAAAAAAAAAAAAAAAAAAAAAAAAAAAAAAAAAAAAAAAAAAAAAAAAAAAAAAAAAAAAAAAAAAAAAAAAAAAAAAAAAAAAAAAAAAAAAAAAAAAAAAAAAAAAAAAAAAAAAAAAAAAAAAAAAAAAAAAAAAAAAAAAAAAAAAAAAAAAAAAAAAAAAAAAAAAAAAAAAAAAAAAAAAAAAAAAAAAAAAAAAAAAAAAAAAAAAAAAAAAAAAAAAAAAAAAAAAAAAAAAAAAAAAAAAAAAAAAAAAAAAAAAAAAAAAAAAAAAAAAAAAAAAAAAAAAAAAAAAAAAAAAAAAAAAAAAAAAAAAAAAAAAAAAAAAAAAAAAAAAAAAAAAAAAAAAAAAAAAAAAAAAAAAAAAAAAAAAAAAAAAAAAAAAAAAAAAAAAAAAAAAAAAAAAAAAAAAAAAAAAAAAAAAAAAAAAAAAAAAAAAAAAAAAAAAAAAAAAAAAAAAAAAAAAAAAAAAAAAAAAAAAAAAAAAAAAAAAAAAAAAAAAAAAAAAAAAAAAAAAAAAAAAAAAAAAAAAAAAAAAAAAAAAAAAAAAAAAAAAAAAAAAAAAAAAAAAAAAAAAAAAAAAAAAAAAAAAAAAAAAAAAAAAAAAAAAAAAAAAAAAAAAAAAAAAAAAAAAAAAAAAAAAAAAAAAAAAAAAAAAAAAAAAAAAAAAAAAAAAAAAAAAAAAAAAAAAAAAAAAAAAAAAAAAAAAAAAAAAAAAAAAAAAAAAAAAAAAAAAAAAAAAAAAAAAAAAAAAAAAAAAAAAAAAAAAAAAAAAAAAAAAAAAAAAAAAAAAAAAAAAAAAAAAAAAAAAAAAAAAAAAAAAAAAAAAAAAAAAAAAAAAAAAAAAAAAAAAAAAAAAAAAAAAAAAAAAAAAAAAAAAAAAAAAAAAAAAAAAAAAAAAAAAAAAAAAAAAAAAAAAAAAAAAAAAAAAAAAAAAAAAAAAAAAAAAAAAAAAAAAAAAAAAAAAAAAAAAAAAAAAAAAAAAAAAAAAAAAAAAAAAAAAAAAAAAAAAAAAAAAAAAAAAAAAAAAAAAAAAAAAAAAAAAAAAAAAAAAAAAAAAAAAAAAAAAAAAAAAAAAAAAAAAAAAAAAAAAAAAAAAAAAAAAAAAAAAAAAAAAAAAAAAAAAAAAAAAAAAAAAAAAAAAAAAAAAAAAAAAAAAAAAAAAAAAAAAAAAAAAAAAAAAAAAAAAAAAAAAAAAAAAAAAAAAAAAAAAAAAAAAAAAAAAAAAAAAAAAAAAAAAAAAAAAAAAAAAAAAAAAAAAAAAAAAAAAAAAAAAAAAAAAAAAAAAAAAAAAAAAAAAAAAAAAAAAAAAAAAAAAAAAAAAAAAAAAAAAAAAAAAAAAAAAAAAAAAAAAAAAAAAAAAAAAAAAAAAAAAAAAAAAAAAAAAAAAAAAAAAAAAAAAAAAAAAAAAAAAAAAAAAAAAAAAAAAAAAAAAAAAAAAAAAAAAAAAAAAAAAAAAAAAAAAAAAAAAAAAAAAAAAAAAAAAAAAAAAAAAAAAAAAAAAAAAAAAAAAAAAAAAAAAAAAAAAAAAAAAAAAAAAAAAAAAAAAAAAAAAAAAAAAAAAAAAAAAAAAAAAAAAAAAAAAAAAAAAAAAAAAAAAAAAAAAAAAAAAAAAAAAAAAAAAAAAAAAAAAAAAAAAAAAAAAAAAAAAAAAAAAAAAAAAAAAAAAAAAAAAAAAAAAAAAAAAAAAAAAAAAAAAAAAAAAAAAAAAAAAAAAAAAAAAAAAAAAAAAAAAAAAAAAAAAAAAAAAAAAAAAAAAAAAAAAAAAAAAAAAAAAAAAAAAAAAAAAAAAAAAAAAAAAAAAAAAAAAAAAAAAAAAAAAAAAAAAAAAAAAAAAAAAAAAAAAAAAAAAAAAAAAAAAAAAAAAAAAAAAAAAAAAAAAAAAAAAAAAAAAAAAAAAAAAAAAAAAAAAAAAAAAAAAAAAAAAAAAAAAAAAAAAAAAAAAAAAAAAAAAAAAAAAAAAAAAAAAAAAAAAAAAAAAAAAAAAAAAAAAAAAAAAAAAAAAAAAAAAAAAAAAAAAAAAAAAAAAAAAAAAAAAAAAAAAAAAAAAAAAAAAAAAAAAAAAAAAAAAAAAAAAAAAAAAAAAAAAAAAAAAAAAAAAAAAAAAAAAAAAAAAAAAAAAAAAAAAAAAAAAAAAAAAAAAAAAAAAAAAAAAAAAAAAAAAAAAAAAAAAAAAAAAAAAAAAAAAAAAAAAAAAAAAAAAAAAAAAAAAAAAAAAAAAAAAAAAAAAAAAAAAAAAAAAAAAAAAAAAAAAAAAAAAAAAAAAAAAAAAAAAAAAAAAAAAAAAAAAAAAAAAAAAAAAAAAAAAAAAAAAAAAAAAAAAAAAAAAAAAAAAAAAAAAAAAAAAAAAAAAAAAAAAAAAAAAAAAAAAAAAAAAAAAAAAAAAAAAAAAAAAAAAAAAAAAAAAAAAAAAAAAAAAAAAAAAAAAAAAAAAAAAAAAAAAAAAAAAAAAAAAAAAAAAAAAAAAAAAAAAAAAAAAAAAAAAAAAAAAAAAAAAAAAAAAAAAAAAAAAAAAAAAAAAAAAAAAAAAAAAAAAAAAAAAAAAAAAAAAAAAAAAAAAAAAAAAAAAAAAAAAAAAAAAAAAAAAAAAAAAAAAAAAAAAAAAAAAAAAAAAAAAAAAAAAAAAAAAAAAAAAAAAAAAAAAAAAAAAAAAAAAAAAAAAAAAAAAAAAAAAAAAAAAAAAAAAAAAAAAAAAAAAAAAAAAAAAAAAAAAAAAAAAAAAAAAAAAAAAAAAAAAAAAAAAAAAAAAAAAAAAAAAAAAAAAAAAAAAAAAAAAAAAAAAAAAAAAAAAAAAAAAAAAAAAAAAAAAAAAAAAAAAAAAAAAAAAAAAAAAAAAAAAAAAAAAAAAAAAAAAAAAAAAAAAAAAAAAAAAAAAAAAAAAAAAAAAAAAAAAAAAAAAAAAAAAAAAAAAAAAAAAAAAAAAAAAAAAAAAAAAAAAAAAAAAAAAAAAAAAAAAAAAAAAAAAAAAAAAAAAAAAAAAAAAAAAAAAAAAAAAAAAAAAAAAAAAAAAAAAAAAAAAAAAAAAAAAAAAAAAAAAAAAAAAAAAAAAAAAAAAAAAAAAAAAAAAAAAAAAAAAAAAAAAAAAAAAAAAAAAAAAAAAAAAAAAAAAAAAAAAAAAAAAAAAAAAAAAAAAAAAAAAAAAAAAAAAAAAAAAAAAAAAAAAAAAAAAAAAAAAAAAAAAAAAAAAAAAAAAAAAAAAAAAAAAAAAAAAAAAAAAAAAAAAAAAAAAAAAAAAAAAAAAAAAAAAAAAAAAAAAAAAAAAAAAAAAAAAAAAAAAAAAAAAAAAAAAAAAAAAAAAAAAAAAAAAAAAAAAAAAAAAAAAAAAAAAAAAAAAAAAAAAAAAAAAAAAAAAAAAAAAAAAAAAAAAAAAAAAAAAAAAAAAAAAAAAAAAAAAAAAAAAAAAAAAAAAAAAAAAAAAAAAAAAAAAAAAAAAAAAAAAAAAAAAAAAAAAAAAAAAAAAAAAAAAAAAAAAAAAAAAAAAAAAAAAAAAAAAAAAAAAAAAAAAAAAAAAAAAAAAAAAAAAAAAAAAAAAAAAAAAAAAAAAAAAAAAAAAAAAAAAAAAAAAAAAAAAAAAAAAAAAAAAAAAAAAAAAAAAAAAAAAAAAAAAAAAAAAAAAAAAAAAAAAAAAAAAAAAAAAAAAAAAAAAAAAAAAAAAAAAAAAAAAAAAAAAAAAAAAAAAAAAAAAAAAAAAAAAAAAAAAAAAAAAAAAAAAAAAAAAAAAAAAAAAAAAAAAAAAAAAAAAAAAAAAAAAAAAAAAAAAAAAAAAAAAAAAAAAAAAAAAAAAAAAAAAAAAAAAAAAAAAAAAAAAAAAAAAAAAAAAAAAAAAAAAAAAAAAAAAAAAAAAAAAAAAAAAAAAAAAAAAAAAAAAAAAAAAAAAAAAAAAAAAAAAAAAAAAAAAAAAAAAAAAAAAAAAAAAAAAAAAAAAAAAAAAAAAAAAAAAAAAAAAAAAAAAAAAAAAAAAAAAAAAAAAAAAAAAAAAAAAAAAAAAAAAAAAAAAAAAAAAAAAAAAAAAAAAAAAAAAAAAAAAAAAAAAAAAAAAAAAAAAAAAAAAAAAAAAAAAAAAAAAAAAAAAAAAAAAAAAAAAAAAAAAAAAAAAAAAAAAAAAAAAAAAAAAAAAAAAAAAAAAAAAAAAAAAAAAAAAAAAAAAAAAAAAAAAAAAAAAAAAAAAAAAAAAAAAAAAAAAAAAAAAAAAAAAAAAAAAAAAAAAAAAAAAAAAAAAAAAAAAAAAAAAAAAAAAAAAAAAAAAAAAAAAAAAAAAAAAAAAAAAAAAAAAAAAAAAAAAAAAAAAAAAAAAAAAAAAAAAAAAAAAAAAAAAAAAAAAAAAAAAAAAAAAAAAAAAAAAAAAAAAAAPZYQDOV5m07L7QSGlQ4YvAVVDLEef1wOgdzyAowTPZwqK521dzsmuyk7tEs8j064MDqE0cOa2tzyXdQlaot5OGDSIA=</c2pa:manifest></metadata>
  <defs>
    <linearGradient id="wall" x1="0" y1="0" x2="0" y2="1">
      <stop offset="0" stop-color="#DCE5EE"/>
      <stop offset="1" stop-color="#EEF2F6"/>
    </linearGradient>
    <linearGradient id="desk" x1="0" y1="0" x2="0" y2="1">
      <stop offset="0" stop-color="#EFD6BC"/>
      <stop offset="1" stop-color="#E6C29F"/>
    </linearGradient>
    <linearGradient id="screen" x1="0" y1="0" x2="1" y2="1">
      <stop offset="0" stop-color="#FAFAF8"/>
      <stop offset="1" stop-color="#EEF2F6"/>
    </linearGradient>
    <filter id="sh" x="-20%" y="-20%" width="140%" height="150%">
      <feDropShadow dx="0" dy="6" stdDeviation="6" flood-color="#1C2635" flood-opacity=".2"/>
    </filter>
  </defs>

  <!-- wall -->
  <rect width="600" height="390" fill="url(#wall)"/>
  <circle cx="300" cy="250" r="190" fill="#F2C39B" opacity=".28"/>

  <!-- framed chart, top left -->
  <g filter="url(#sh)">
    <rect x="34" y="36" width="190" height="150" rx="6" fill="#304157"/>
  </g>
  <rect x="44" y="46" width="170" height="130" rx="3" fill="#FAFAF8"/>
  <text x="58" y="70" font-size="13" font-weight="700" fill="#304157">ARR</text>
  <path d="M58 156h140" stroke="#C6D3E0" stroke-width="2"/>
  <path d="M60 148L90 138L116 142L144 118L170 106L196 82" fill="none" stroke="#E8A66F" stroke-width="4" stroke-linecap="round" stroke-linejoin="round"/>
  <path d="M184 80l14 1-4 13" fill="none" stroke="#E8A66F" stroke-width="4" stroke-linecap="round" stroke-linejoin="round"/>
  <rect x="150" y="56" width="52" height="18" rx="5" fill="#304157"/>
  <text x="176" y="69" text-anchor="middle" font-size="10" font-weight="700" fill="#F2C39B">+32%</text>

  <!-- sticky notes, centre -->
  <g transform="rotate(-4 300 110)" filter="url(#sh)">
    <rect x="258" y="54" width="78" height="74" fill="#F2C39B"/>
  </g>
  <text x="292" y="98" text-anchor="middle" font-size="16" font-weight="700" fill="#304157" transform="rotate(-4 300 110)">NRR</text>
  <g transform="rotate(5 380 120)" filter="url(#sh)">
    <rect x="348" y="70" width="74" height="70" fill="#C6D3E0"/>
  </g>
  <text x="385" y="112" text-anchor="middle" font-size="16" font-weight="700" fill="#304157" transform="rotate(5 380 120)">CAC</text>
  <g transform="rotate(3 300 170)" filter="url(#sh)">
    <rect x="286" y="136" width="62" height="24" fill="#FAFAF8"/>
  </g>
  <text x="317" y="153" text-anchor="middle" font-size="11" font-weight="700" fill="#6B7A93" transform="rotate(3 300 170)">Q4 goals</text>
  <circle cx="297" cy="60" r="4" fill="#96564C"/>
  <circle cx="385" cy="74" r="4" fill="#304157"/>

  <!-- clock, top right -->
  <g filter="url(#sh)">
    <circle cx="505" cy="100" r="58" fill="#FAFAF8" stroke="#304157" stroke-width="8"/>
  </g>
  <g stroke="#6B7A93" stroke-width="3" stroke-linecap="round">
    <path d="M505 54v8M505 138v8M459 100h8M543 100h8"/>
  </g>
  <path d="M505 100V72M505 100l20 12" stroke="#304157" stroke-width="5" stroke-linecap="round"/>
  <path d="M505 100l-26 18" stroke="#E8A66F" stroke-width="2.5" stroke-linecap="round"/>
  <circle cx="505" cy="100" r="5" fill="#E8A66F"/>

  <!-- plant, right -->
  <g>
    <path d="M532 300c-30-20-50-70-38-110 22 20 40 60 38 110z" fill="#5C7A5C"/>
    <path d="M532 300c10-40 40-80 60-86 4 40-24 76-60 86z" fill="#6F8F6F"/>
    <path d="M530 302c-18-10-50-20-66-4 20 12 46 14 66 4z" fill="#7C9C7C"/>
    <path d="M534 300c0-40 6-80 22-104 10 34 2 76-22 104z" fill="#4E6A4E"/>
    <path d="M500 300h68l-8 86h-52z" fill="#304157"/>
    <rect x="496" y="294" width="76" height="14" rx="4" fill="#1C2635"/>
  </g>

  <!-- mug, left -->
  <g>
    <path d="M70 262c-8-12 8-18 0-30M88 262c-8-12 8-18 0-30" fill="none" stroke="#A9B8CB" stroke-width="4" stroke-linecap="round"/>
    <path d="M118 300h14a18 18 0 0 1 0 36h-10" fill="none" stroke="#304157" stroke-width="8"/>
    <path d="M44 280h80v88a14 14 0 0 1-14 14H58a14 14 0 0 1-14-14z" fill="#304157"/>
    <ellipse cx="84" cy="280" rx="40" ry="8" fill="#1C2635"/>
    <path d="M70 330l12-12 12 12M82 318v26" fill="none" stroke="#F2C39B" stroke-width="5" stroke-linecap="round" stroke-linejoin="round"/>
  </g>

  <!-- desk -->
  <rect y="382" width="600" height="218" fill="url(#desk)"/>
  <rect y="382" width="600" height="8" fill="#D9AE85"/>
  <rect y="578" width="600" height="22" fill="#D39E70"/>

  <!-- laptop -->
  <g filter="url(#sh)">
    <rect x="160" y="186" width="280" height="190" rx="12" fill="#1C2635"/>
    <path d="M124 376h352l-18 22H142z" fill="#6B7A93"/>
  </g>
  <rect x="264" y="378" width="72" height="6" rx="3" fill="#A9B8CB"/>
  <rect x="172" y="198" width="256" height="166" rx="4" fill="url(#screen)"/>
  <rect x="172" y="198" width="256" height="24" fill="#304157"/>
  <circle cx="184" cy="210" r="4" fill="#F2C39B"/>
  <text x="196" y="214.5" font-size="11" font-weight="700" fill="#FAFAF8">Contacts</text>
  <rect x="352" y="203" width="68" height="14" rx="4" fill="#F2C39B"/>
  <text x="386" y="213.5" text-anchor="middle" font-size="9" font-weight="700" fill="#304157">+ New</text>
  <g font-size="10" fill="#304157">
    <circle cx="190" cy="240" r="9" fill="#C6D3E0"/><rect x="206" y="234" width="72" height="6" rx="3" fill="#304157"/><rect x="206" y="244" width="46" height="5" rx="2.5" fill="#A9B8CB"/>
    <rect x="296" y="234" width="44" height="14" rx="4" fill="#F1F6F1"/><text x="318" y="244.5" text-anchor="middle" font-size="8.5" font-weight="700" fill="#5C7A5C">Customer</text>
    <circle cx="190" cy="268" r="9" fill="#F2C39B"/><rect x="206" y="262" width="60" height="6" rx="3" fill="#304157"/><rect x="206" y="272" width="54" height="5" rx="2.5" fill="#A9B8CB"/>
    <rect x="296" y="262" width="44" height="14" rx="4" fill="#FDF1E6"/><text x="318" y="272.5" text-anchor="middle" font-size="8.5" font-weight="700" fill="#B8733D">SQL</text>
    <circle cx="190" cy="296" r="9" fill="#6B7A93"/><rect x="206" y="290" width="80" height="6" rx="3" fill="#304157"/><rect x="206" y="300" width="40" height="5" rx="2.5" fill="#A9B8CB"/>
    <rect x="296" y="290" width="44" height="14" rx="4" fill="#EEF2F6"/><text x="318" y="300.5" text-anchor="middle" font-size="8.5" font-weight="700" fill="#304157">Lead</text>
    <circle cx="190" cy="324" r="9" fill="#304157"/><rect x="206" y="318" width="66" height="6" rx="3" fill="#304157"/><rect x="206" y="328" width="50" height="5" rx="2.5" fill="#A9B8CB"/>
    <rect x="296" y="318" width="44" height="14" rx="4" fill="#F1F6F1"/><text x="318" y="328.5" text-anchor="middle" font-size="8.5" font-weight="700" fill="#5C7A5C">Customer</text>
  </g>
  <rect x="352" y="232" width="66" height="120" rx="6" fill="#FFFFFF" stroke="#E6E9EE"/>
  <rect x="360" y="312" width="10" height="30" rx="2" fill="#C6D3E0"/>
  <rect x="374" y="296" width="10" height="46" rx="2" fill="#6B7A93"/>
  <rect x="388" y="280" width="10" height="62" rx="2" fill="#304157"/>
  <rect x="402" y="258" width="10" height="84" rx="2" fill="#F2C39B"/>
  <text x="360" y="249" font-size="9" font-weight="700" fill="#6B7A93">MRR</text>

  <!-- notebook and pen, bottom left -->
  <g transform="rotate(-8 120 490)" filter="url(#sh)">
    <rect x="46" y="432" width="150" height="116" rx="6" fill="#FAFAF8"/>
    <rect x="46" y="432" width="16" height="116" rx="4" fill="#304157"/>
    <g stroke="#C6D3E0" stroke-width="2"><path d="M74 458h108M74 478h108M74 498h108M74 518h108"/></g>
    <path d="M78 470c8-10 14 4 22-4s12 2 20-2" fill="none" stroke="#304157" stroke-width="2.5" stroke-linecap="round"/>
    <path d="M78 490h60" stroke="#304157" stroke-width="2.5" stroke-linecap="round"/>
    <path d="M78 510h40" stroke="#E8A66F" stroke-width="3" stroke-linecap="round"/>
    <circle cx="160" cy="510" r="9" fill="none" stroke="#E8A66F" stroke-width="2.5"/>
  </g>
  <g transform="rotate(28 230 470)">
    <rect x="214" y="420" width="12" height="104" rx="4" fill="#E8A66F"/>
    <path d="M214 524h12l-6 14z" fill="#304157"/>
    <rect x="214" y="420" width="12" height="14" rx="3" fill="#304157"/>
  </g>

  <!-- mouse and sticky pad, bottom centre -->
  <g filter="url(#sh)">
    <rect x="266" y="470" width="80" height="80" rx="4" fill="#F2C39B" transform="rotate(6 306 510)"/>
  </g>
  <text x="306" y="506" text-anchor="middle" font-size="13" font-weight="700" fill="#304157" transform="rotate(6 306 510)">Call</text>
  <text x="306" y="524" text-anchor="middle" font-size="13" font-weight="700" fill="#304157" transform="rotate(6 306 510)">Tandem 2pm</text>
  <g filter="url(#sh)">
    <rect x="376" y="440" width="44" height="66" rx="22" fill="#FAFAF8"/>
  </g>
  <path d="M398 442v20" stroke="#C6D3E0" stroke-width="2"/>

  <!-- phone, bottom right -->
  <g transform="rotate(10 520 510)">
    <g filter="url(#sh)"><rect x="474" y="430" width="92" height="156" rx="14" fill="#1C2635"/></g>
    <rect x="482" y="440" width="76" height="136" rx="8" fill="#304157"/>
    <rect x="488" y="454" width="64" height="40" rx="7" fill="#FAFAF8"/>
    <circle cx="500" cy="466" r="6" fill="#F2C39B"/>
    <rect x="510" y="462" width="36" height="5" rx="2.5" fill="#304157"/>
    <rect x="494" y="478" width="52" height="5" rx="2.5" fill="#A9B8CB"/>
    <text x="520" y="522" text-anchor="middle" font-size="11" font-weight="700" fill="#F2C39B">Deal won</text>
    <text x="520" y="540" text-anchor="middle" font-size="15" font-weight="700" fill="#FAFAF8">$48k</text>
  </g>
</svg>
